# xmcd CD database file
#
# Track frame offsets:
#	150
#	19113
#	35327
#	53133
#	70073
#	88762
#	102228
#	116422
#	141956
#	158139
#	182893
#	195727
#	215903
#	239632
#	249846
#
# Disc length: 3490 seconds
#
# Revision: 0
# Processed by: cddbd v1.5.1PL2 Copyright (c) Steve Scherf et al.
# Submitted via: CDex 1.70beta1
#
DISCID=d50da00f
DTITLE=Various Artist - The Best Smooth Jazz Ever
DYEAR=1900
DGENRE=Jazz
TTITLE0=Charlie Hunter w. Norah Jones - More Than This
TTITLE1=Cannonball Adderley - Sambop
TTITLE2=Bobby McFerrin - Don't Worry Be Happy
TTITLE3=US3 - Cantaloop
TTITLE4=Cassandra Wilson - Time After Time
TTITLE5=Chet Baker - My Funny Valentine
TTITLE6=Duke Ellington and Louis Armstrong - I'm Just A Lucky So and So
TTITLE7=Earl Klugh - Living Insder Your Love
TTITLE8=Ella Fitzgerald - Misty Blue
TTITLE9=Herbie Hancock - Canteloupe Island
TTITLE10=Julie London - Cry Me A River
TTITLE11=Lou Rawls - You Made Me So Very Happy
TTITLE12=Miles Davis and Cannonball Adderley - Autumn Leaves
TTITLE13=Nancy Wilson - Call Me
TTITLE14=Nat King Cole - Nature Boy
EXTD=
EXTT0=
EXTT1=
EXTT2=
EXTT3=
EXTT4=
EXTT5=
EXTT6=
EXTT7=
EXTT8=
EXTT9=
EXTT10=
EXTT11=
EXTT12=
EXTT13=
EXTT14=
PLAYORDER=
